<svg width="33" height="33" viewBox="0 0 33 33" fill="none" xmlns="http://www.w3.org/2000/svg">
<path d="M26.1193 7.08008H22.6543L20.9505 4.52508C20.8592 4.38827 20.7356 4.27608 20.5906 4.19846C20.4456 4.12084 20.2837 4.08018 20.1193 4.08008H12.1193C11.9548 4.08018 11.7929 4.12084 11.6479 4.19846C11.5029 4.27608 11.3793 4.38827 11.288 4.52508L9.58301 7.08008H6.11926C5.32361 7.08008 4.56055 7.39615 3.99794 7.95876C3.43533 8.52137 3.11926 9.28443 3.11926 10.0801V24.0801C3.11926 24.8757 3.43533 25.6388 3.99794 26.2014C4.56055 26.764 5.32361 27.0801 6.11926 27.0801H26.1193C26.9149 27.0801 27.678 26.764 28.2406 26.2014C28.8032 25.6388 29.1193 24.8757 29.1193 24.0801V10.0801C29.1193 9.28443 28.8032 8.52137 28.2406 7.95876C27.678 7.39615 26.9149 7.08008 26.1193 7.08008ZM27.1193 24.0801C27.1193 24.3453 27.0139 24.5996 26.8264 24.7872C26.6388 24.9747 26.3845 25.0801 26.1193 25.0801H6.11926C5.85405 25.0801 5.59969 24.9747 5.41216 24.7872C5.22462 24.5996 5.11926 24.3453 5.11926 24.0801V10.0801C5.11926 9.81486 5.22462 9.56051 5.41216 9.37297C5.59969 9.18544 5.85405 9.08008 6.11926 9.08008H10.1193C10.2839 9.08018 10.4461 9.03962 10.5913 8.96199C10.7366 8.88436 10.8604 8.77207 10.9518 8.63508L12.6543 6.08008H19.583L21.2868 8.63508C21.3782 8.77207 21.502 8.88436 21.6472 8.96199C21.7924 9.03962 21.9546 9.08018 22.1193 9.08008H26.1193C26.3845 9.08008 26.6388 9.18544 26.8264 9.37297C27.0139 9.56051 27.1193 9.81486 27.1193 10.0801V24.0801ZM16.1193 11.0801C15.0315 11.0801 13.9681 11.4026 13.0636 12.007C12.1592 12.6113 11.4542 13.4703 11.0379 14.4753C10.6216 15.4803 10.5127 16.5862 10.7249 17.6531C10.9372 18.72 11.461 19.7 12.2302 20.4692C12.9994 21.2384 13.9794 21.7622 15.0463 21.9744C16.1132 22.1866 17.219 22.0777 18.224 21.6614C19.229 21.2451 20.088 20.5402 20.6923 19.6357C21.2967 18.7312 21.6193 17.6679 21.6193 16.5801C21.6176 15.1219 21.0376 13.7239 20.0065 12.6928C18.9754 11.6617 17.5774 11.0817 16.1193 11.0801ZM16.1193 20.0801C15.427 20.0801 14.7503 19.8748 14.1748 19.4902C13.5992 19.1056 13.1506 18.559 12.8857 17.9195C12.6208 17.2799 12.5515 16.5762 12.6865 15.8973C12.8216 15.2183 13.1549 14.5947 13.6444 14.1052C14.1339 13.6157 14.7575 13.2824 15.4364 13.1473C16.1154 13.0123 16.8191 13.0816 17.4587 13.3465C18.0982 13.6114 18.6448 14.06 19.0294 14.6356C19.414 15.2112 19.6193 15.8878 19.6193 16.5801C19.6193 17.5083 19.2505 18.3986 18.5941 19.055C17.9378 19.7113 17.0475 20.0801 16.1193 20.0801Z" fill="#65A30D"/>
</svg>
